<svg width="64" height="64" viewBox="0 0 64 64" fill="none" xmlns="http://www.w3.org/2000/svg">
<path d="M5.955 27.823C5.955 33.108 10.259 37.407 15.548 37.407H44.902C52.149 37.407 58.045 31.515 58.045 24.273C58.045 17.384 52.631 11.658 45.835 11.187C43.865 5.66899 38.704 2.01099 32.777 2.01099C27.765 2.01099 23.226 4.64699 20.746 8.94399C20.205 8.83599 19.653 8.78199 19.098 8.78199C14.418 8.78199 10.611 12.59 10.611 17.27C10.611 17.993 10.706 18.719 10.893 19.438C7.867 21.112 5.955 24.313 5.955 27.823ZM12.502 20.872C12.987 20.661 13.224 20.107 13.041 19.61C12.755 18.833 12.61 18.046 12.61 17.269C12.61 13.692 15.52 10.781 19.097 10.781C19.733 10.781 20.362 10.874 20.965 11.057C21.431 11.201 21.931 10.986 22.149 10.551C24.182 6.51699 28.254 4.00999 32.777 4.00999C38.055 4.00999 42.624 7.39899 44.144 12.444C44.269 12.861 44.651 13.149 45.086 13.155C51.128 13.242 56.044 18.229 56.044 24.272C56.044 30.411 51.045 35.406 44.901 35.406H15.548C11.361 35.406 7.955 32.004 7.955 27.822C7.955 24.803 9.74 22.076 12.502 20.872Z" fill="black"/>
<path d="M23.247 29.999C23.388 30.067 23.537 30.1 23.684 30.1C24.055 30.1 24.412 29.893 24.584 29.538L26.026 26.573H32.465L33.907 29.538C34.148 30.034 34.747 30.242 35.244 30C35.74 29.758 35.947 29.16 35.706 28.663L30.145 17.23C29.977 16.886 29.628 16.668 29.246 16.668C28.864 16.668 28.515 16.886 28.347 17.23L22.785 28.663C22.544 29.16 22.75 29.757 23.247 29.999ZM29.246 19.953L31.493 24.572H26.999L29.246 19.953Z" fill="black"/>
<path d="M38.11 30.099C38.663 30.099 39.11 29.651 39.11 29.099V17.666C39.11 17.114 38.663 16.666 38.11 16.666C37.557 16.666 37.11 17.114 37.11 17.666V29.099C37.11 29.651 37.557 30.099 38.11 30.099Z" fill="black"/>
<path d="M48.437 55.2041C48.437 52.9151 46.575 51.0541 44.287 51.0541C43.571 51.0541 42.908 51.2531 42.319 51.5731L38.446 47.7001V39.4551C38.446 38.9031 37.999 38.4551 37.446 38.4551C36.893 38.4551 36.446 38.9031 36.446 39.4551V48.1141C36.446 48.3791 36.551 48.6341 36.739 48.8211L40.831 52.9131C40.394 53.5701 40.136 54.3571 40.136 55.2041C40.136 57.4931 41.998 59.3541 44.286 59.3541C46.574 59.3541 48.437 57.4921 48.437 55.2041ZM44.287 57.3541C43.101 57.3541 42.137 56.3891 42.137 55.2041C42.137 54.0191 43.102 53.0541 44.287 53.0541C45.472 53.0541 46.437 54.0191 46.437 55.2041C46.437 56.3891 45.472 57.3541 44.287 57.3541Z" fill="black"/>
<path d="M51.595 50.5959C53.883 50.5959 55.745 48.7339 55.745 46.4459C55.745 44.1579 53.883 42.2959 51.595 42.2959C49.653 42.2959 48.031 43.6419 47.58 45.4459H43.773V39.4519C43.773 38.8999 43.326 38.4519 42.773 38.4519C42.22 38.4519 41.773 38.8999 41.773 39.4519V46.4459C41.773 46.9979 42.22 47.4459 42.773 47.4459H47.58C48.031 49.2499 49.653 50.5959 51.595 50.5959ZM51.595 44.2949C52.781 44.2949 53.745 45.2599 53.745 46.4449C53.745 47.6299 52.78 48.5949 51.595 48.5949C50.41 48.5949 49.445 47.6299 49.445 46.4449C49.445 45.2599 50.41 44.2949 51.595 44.2949Z" fill="black"/>
<path d="M32 38.4519C31.447 38.4519 31 38.8999 31 39.4519V53.8349C29.196 54.2859 27.85 55.9079 27.85 57.8489C27.85 60.1379 29.712 61.9989 32 61.9989C34.288 61.9989 36.15 60.1369 36.15 57.8489C36.15 55.9069 34.804 54.2849 33 53.8349V39.4519C33 38.8999 32.553 38.4519 32 38.4519ZM34.15 57.8489C34.15 59.0349 33.185 59.9989 32 59.9989C30.815 59.9989 29.85 59.0339 29.85 57.8489C29.85 56.6639 30.815 55.6989 32 55.6989C33.185 55.6989 34.15 56.6629 34.15 57.8489Z" fill="black"/>
<path d="M16.42 47.4459H21.227C21.78 47.4459 22.227 46.9979 22.227 46.4459V39.4519C22.227 38.8999 21.78 38.4519 21.227 38.4519C20.674 38.4519 20.227 38.8999 20.227 39.4519V45.4459H16.42C15.969 43.6419 14.347 42.2959 12.405 42.2959C10.117 42.2959 8.255 44.1579 8.255 46.4459C8.255 48.7339 10.117 50.5959 12.405 50.5959C14.347 50.5959 15.969 49.2499 16.42 47.4459ZM10.255 46.4459C10.255 45.2599 11.22 44.2959 12.405 44.2959C13.59 44.2959 14.555 45.2609 14.555 46.4459C14.555 47.6309 13.59 48.5959 12.405 48.5959C11.22 48.5959 10.255 47.6309 10.255 46.4459Z" fill="black"/>
<path d="M27.555 48.1131V39.4541C27.555 38.9021 27.108 38.4541 26.555 38.4541C26.002 38.4541 25.555 38.9021 25.555 39.4541V47.6991L21.682 51.5721C21.094 51.2521 20.43 51.0531 19.714 51.0531C17.426 51.0531 15.564 52.9151 15.564 55.2031C15.564 57.4911 17.426 59.3531 19.714 59.3531C22.002 59.3531 23.864 57.4911 23.864 55.2031C23.864 54.3561 23.606 53.5691 23.169 52.9121L27.261 48.8201C27.449 48.6321 27.555 48.3781 27.555 48.1131ZM19.714 57.3541C18.528 57.3541 17.564 56.3891 17.564 55.2041C17.564 54.0191 18.529 53.0541 19.714 53.0541C20.899 53.0541 21.864 54.0191 21.864 55.2041C21.864 56.3891 20.899 57.3541 19.714 57.3541Z" fill="black"/>
</svg>
