<svg width="50" height="50" viewBox="0 0 50 50" fill="none" xmlns="http://www.w3.org/2000/svg">
<path d="M41.9525 20.4172C42.093 15.213 40.2061 10.279 36.5845 6.51626C32.9158 2.68403 27.9814 0.586182 22.6839 0.586182C12.0533 0.586182 3.41492 9.22378 3.41492 19.8548C3.41492 25.0586 5.54812 30.0868 9.26345 33.685L7.95066 48.7696C7.93904 48.9334 7.99792 49.0976 8.10339 49.215C8.22048 49.3435 8.37273 49.4139 8.5488 49.4139H28.6146C28.7785 49.4139 28.9425 49.3321 29.0598 49.2032C29.1771 49.0741 29.2239 48.8984 29.2006 48.7227L28.1575 41.9712L35.0021 41.8074C38.87 41.7021 41.8939 38.6664 41.8939 34.892V28.5864C43.6403 28.4925 44.9297 28.3287 45.7267 28.0705C46.1721 27.9299 46.4647 27.6136 46.5589 27.1916C46.9455 25.3749 42.9253 21.3547 41.9525 20.4172ZM45.4219 26.9223C45.4219 26.9223 45.4101 26.9337 45.3632 26.9456C44.836 27.1096 43.6871 27.3326 41.2846 27.438C40.9564 27.4497 40.71 27.7078 40.71 28.0238V34.8921C40.71 38.0215 38.1899 40.5298 34.9669 40.6235L27.0554 40.8228C27.0319 40.8228 27.0087 40.8228 26.9851 40.8228C26.1177 40.8228 25.2973 40.483 24.6762 39.8613C24.0079 39.2171 23.621 38.3028 23.621 37.3655V36.5212C24.1133 36.3686 24.5703 36.0877 24.9219 35.7009C25.5084 35.0559 25.7544 34.2004 25.6371 33.3684L26.5866 33.0987C26.8914 33.005 27.0787 32.677 26.985 32.3603C26.8914 32.0441 26.5632 31.868 26.2582 31.9619L24.7932 32.3721C24.7816 32.3837 24.7698 32.3721 24.7698 32.3837L20.3863 33.6378C20.3746 33.6378 20.363 33.6378 20.363 33.6495L19.015 34.0363C18.6986 34.1183 18.5111 34.4465 18.605 34.7629C18.6752 35.0208 18.921 35.1966 19.1791 35.1966C19.2259 35.1966 19.2844 35.185 19.3431 35.1732L20.1635 34.9268C20.5152 35.7008 21.1833 36.31 22.0273 36.5446C22.156 36.5796 22.2967 36.6032 22.4376 36.6266V37.3653C22.4376 38.6192 22.9533 39.8379 23.8439 40.717C24.6879 41.5373 25.7895 41.9946 26.9616 42.006L27.9227 48.23H9.19324L10.471 33.4973C10.4824 33.321 10.4122 33.1454 10.2835 33.0166C6.67361 29.6291 4.5988 24.8355 4.5988 19.8544C4.5988 9.87993 12.7094 1.76919 22.6839 1.76919C27.6533 1.76919 32.2946 3.73853 35.729 7.32495C39.1865 10.9232 40.968 15.6583 40.7568 20.6394C40.745 20.8157 40.8276 20.9912 40.9564 21.1086C42.3512 22.3509 45.6915 26.1485 45.4219 26.9223ZM24.4769 33.6966C24.5004 34.1303 24.3482 34.5757 24.0434 34.9038C23.7268 35.2557 23.2697 35.4548 22.7892 35.4548C22.6252 35.4548 22.4732 35.4432 22.332 35.408C21.8983 35.2789 21.5351 34.9859 21.3242 34.5991L24.4769 33.6966ZM31.1694 14.4043C29.9272 10.8533 26.5635 8.47398 22.8009 8.47398C19.0388 8.47398 15.6632 10.8532 14.4091 14.416C13.2488 17.7565 14.163 21.4602 16.7417 23.8516C16.929 24.0273 17.0226 24.25 17.0226 24.4958V28.3636C17.0226 29.4068 17.7966 30.5553 18.8978 30.5553C19.0506 30.5553 19.2027 30.5321 19.3315 30.4969L26.5751 28.4341C28.3097 27.9298 28.5677 26.8871 28.5677 26.3007V24.4957C28.5677 24.2381 28.6615 24.0272 28.837 23.8515C31.4272 21.4484 32.3415 17.7451 31.1694 14.4043ZM28.0283 22.9957C27.6064 23.3945 27.3839 23.91 27.3839 24.4958V26.3008C27.3839 26.7462 27.0088 27.0743 26.2585 27.2972L19.0037 29.3598C18.9686 29.3716 18.9335 29.3716 18.8978 29.3716C18.57 29.3716 18.2066 28.8443 18.2066 28.3636V24.4958C18.2066 23.9218 17.9837 23.4059 17.5501 22.984C15.3113 20.9094 14.5143 17.698 15.5226 14.8031C16.6125 11.7208 19.531 9.65747 22.8008 9.65747C26.0594 9.65747 28.9776 11.7208 30.0561 14.8031C31.0758 17.6861 30.2786 20.8975 28.0283 22.9957ZM26.9853 30.028C27.079 30.3446 26.8917 30.6725 26.5869 30.7666L19.3433 32.8407C19.2846 32.8525 19.2261 32.8641 19.1793 32.8641C18.9212 32.8641 18.6754 32.6884 18.6052 32.4306C18.5113 32.1144 18.6988 31.7861 19.0152 31.7042L26.2584 29.6294C26.5635 29.5361 26.8917 29.7116 26.9853 30.028ZM22.2267 6.69233V4.52407C22.2267 4.19585 22.4965 3.93774 22.8243 3.93774C23.1408 3.93774 23.4107 4.19585 23.4107 4.52407V6.69233C23.4107 7.02017 23.1408 7.29009 22.8243 7.29009C22.4964 7.29009 22.2267 7.02026 22.2267 6.69233ZM32.2946 7.87583C32.5292 8.1104 32.5292 8.4856 32.2946 8.72007L30.7594 10.2555C30.6419 10.3726 30.5014 10.431 30.3493 10.431C30.1966 10.431 30.0445 10.3726 29.9272 10.2555C29.6926 10.0209 29.6926 9.64575 29.9272 9.41148L31.4626 7.87583C31.6971 7.65347 32.0722 7.65347 32.2946 7.87583ZM36.1978 17.3699C36.1978 17.6979 35.928 17.9674 35.6119 17.9674H33.4434C33.1152 17.9674 32.8454 17.6979 32.8454 17.3699C32.8454 17.0415 33.1152 16.7839 33.4434 16.7839H35.6119C35.928 16.7839 36.1978 17.0415 36.1978 17.3699ZM32.2478 26.0081C32.4821 26.242 32.4821 26.6172 32.2478 26.8519C32.1307 26.969 31.9781 27.0278 31.8378 27.0278C31.6853 27.0278 31.533 26.969 31.4158 26.8519L29.8805 25.3163C29.646 25.0821 29.646 24.7071 29.8805 24.4726C30.1147 24.25 30.4897 24.25 30.7124 24.4726L32.2478 26.0081ZM15.6632 24.4255C15.8976 24.6601 15.8976 25.0353 15.6632 25.2698L14.1279 26.8052C14.0104 26.9223 13.8698 26.9809 13.7177 26.9809C13.565 26.9809 13.4129 26.9223 13.2958 26.8052C13.0612 26.5707 13.0612 26.1955 13.2958 25.961L14.8308 24.4255C15.0654 24.203 15.4405 24.203 15.6632 24.4255ZM12.7445 17.3112C12.7445 17.6396 12.4869 17.9087 12.1586 17.9087H9.97869C9.65046 17.9087 9.38093 17.6396 9.38093 17.3112C9.38093 16.9832 9.65046 16.7252 9.97869 16.7252H12.1586C12.4869 16.7252 12.7445 16.9831 12.7445 17.3112ZM13.3308 8.68481C13.0963 8.45044 13.0963 8.07544 13.3308 7.84077C13.565 7.61841 13.9402 7.61841 14.163 7.84077L15.6983 9.37642C15.9329 9.61079 15.9329 9.9856 15.6983 10.2203C15.5811 10.3375 15.4405 10.3961 15.2881 10.3961C15.1358 10.3961 14.9832 10.3375 14.8659 10.2203L13.3308 8.68481Z" fill="black" stroke="black" stroke-width="0.4"/>
</svg>
