<svg width="291" height="428" viewBox="0 0 291 428" fill="none" xmlns="http://www.w3.org/2000/svg">
<g opacity="0.1">
<path d="M109.773 353.791L66.5039 327.098V192.024L109.773 166.164V353.791Z" stroke="black" stroke-width="3"/>
<path d="M54.1666 180.444L11.982 205.738L12.8766 155.148L54.1666 180.444Z" stroke="black" stroke-width="3"/>
<path d="M212.982 83.2983L72.1432 169.482L30.4576 142.738L212.982 30.9233V83.2983Z" stroke="black" stroke-width="3"/>
<path d="M212.982 162.71L171.844 189.62L171.165 190.064V287.542L127.651 313.406V160.801L212.982 109.391V162.71Z" stroke="black" stroke-width="3"/>
<path d="M171.463 328.576L129.679 353.82V332.367L171.463 307.955V328.576Z" stroke="black" stroke-width="3"/>
<path d="M216.963 214.807L189.291 231.89V197.724L216.963 214.807Z" stroke="black" stroke-width="3"/>
<path d="M171.754 35.6523L149.846 49.3535L119.77 29.5508L118.978 29.0283L118.166 29.5215L-29.7852 119.373L-30.5068 119.811V120.655L-30.5117 165.342L-54.5 151.075V107.578L118.96 1.76855L171.754 35.6523Z" stroke="black" stroke-width="3"/>
<path d="M-30.5078 190.613L-30.5117 303.854V304.686L-29.8057 305.126L118.783 397.888L119.576 398.383L120.369 397.89L264.212 308.399L264.914 307.963L264.92 307.137L265.193 269.649L289.5 284.479V319.069L118.983 426.062L-54.5 316.218V176.447L-30.5078 190.613Z" stroke="black" stroke-width="3"/>
<path d="M265.186 125.37L264.511 124.925L231.754 103.343V77.1841L289.5 113.597V257.353L265.186 242.79V125.37Z" stroke="black" stroke-width="3"/>
</g>
</svg>
