<svg width="64" height="64" viewBox="0 0 64 64" fill="none" xmlns="http://www.w3.org/2000/svg">
<path d="M19.232 47.8362L19.234 47.8382C23.55 51.4232 28.858 53.2242 34.17 53.2242C39.482 53.2242 44.76 51.4352 49.069 47.8722C49.086 47.8562 49.104 47.8432 49.12 47.8262C49.669 47.3702 50.206 46.8942 50.721 46.3802C59.847 37.2542 59.847 22.4042 50.721 13.2782C41.596 4.15221 26.745 4.15321 17.619 13.2782C8.49298 22.4042 8.49298 37.2542 17.619 46.3802C18.137 46.8982 18.678 47.3772 19.231 47.8372L19.232 47.8362ZM20.94 46.6402V45.3002C20.94 38.7862 25.672 33.3182 31.964 32.2572L30.039 38.9722C29.945 39.3012 30.025 39.6562 30.253 39.9112C31.481 41.2922 32.116 42.0002 33.302 43.3212L33.433 43.4672C33.623 43.6782 33.893 43.7992 34.177 43.7992C34.461 43.7992 34.731 43.6782 34.921 43.4672C35.831 42.4532 36.409 41.8022 37.129 40.9892L38.087 39.9102C38.314 39.6552 38.395 39.3012 38.301 38.9722L36.388 32.2582C39.078 32.7142 41.573 33.9852 43.523 35.9352C46.023 38.4352 47.4 41.7602 47.4 45.2982V46.6402C39.664 52.7352 28.676 52.7352 20.94 46.6382V46.6402ZM34.101 32.0622C34.101 32.0622 34.108 32.0622 34.112 32.0622C34.132 32.0622 34.151 32.0652 34.172 32.0652C34.191 32.0652 34.209 32.0622 34.227 32.0622H34.253L36.228 38.9942L35.633 39.6632C35.132 40.2282 34.7 40.7152 34.176 41.3022C33.455 40.4982 32.903 39.8812 32.113 38.9942L34.101 32.0622ZM34.216 30.0622C34.183 30.0622 34.152 30.0622 34.119 30.0622C30.462 30.0332 27.495 27.0522 27.495 23.3892C27.495 19.7262 30.49 16.7132 34.171 16.7132C37.852 16.7132 40.847 19.7082 40.847 23.3892C40.847 27.0702 37.876 30.0382 34.215 30.0632L34.216 30.0622ZM19.034 14.6912C23.208 10.5182 28.688 8.43221 34.171 8.43221C39.654 8.43221 45.135 10.5192 49.308 14.6912C57.629 23.0122 57.65 36.5332 49.38 44.8862C49.276 40.9702 47.717 37.3032 44.937 34.5232C43.181 32.7672 41.038 31.4952 38.711 30.7682C41.188 29.2392 42.848 26.5072 42.848 23.3882C42.848 18.6042 38.956 14.7122 34.172 14.7122C29.388 14.7122 25.496 18.6042 25.496 23.3882C25.496 26.5082 27.157 29.2412 29.637 30.7702C23.548 32.6702 19.141 38.2702 18.962 44.8832C10.695 36.5302 10.716 23.0112 19.036 14.6912H19.034Z" fill="black"/>
<path d="M8.94802 61.997C10.727 61.997 12.506 61.32 13.861 59.965L20.028 53.798C24.374 56.362 29.272 57.643 34.172 57.643C41.297 57.643 48.425 54.93 53.85 49.505C64.7 38.654 64.7 21 53.85 10.15C48.594 4.89402 41.605 1.99902 34.172 1.99902C26.739 1.99902 19.75 4.89402 14.494 10.15C9.23802 15.406 6.34302 22.394 6.34302 29.828C6.34302 34.886 7.68602 39.736 10.199 43.976L4.03602 50.139C1.32702 52.848 1.32702 57.256 4.03602 59.965C5.39002 61.319 7.17002 61.997 8.94902 61.997H8.94802ZM15.908 11.565C20.786 6.68702 27.272 4.00002 34.172 4.00002C41.072 4.00002 47.557 6.68702 52.436 11.565C62.506 21.635 62.506 38.022 52.436 48.092C42.365 58.161 25.978 58.161 15.909 48.092C11.031 43.214 8.34402 36.727 8.34402 29.828C8.34402 22.929 11.031 16.443 15.909 11.564L15.908 11.565ZM5.44902 51.554L11.309 45.694C12.249 47.042 13.308 48.32 14.494 49.506C15.689 50.701 16.969 51.756 18.311 52.687L12.447 58.551C10.517 60.48 7.37902 60.479 5.44902 58.551C3.52002 56.622 3.52002 53.484 5.44902 51.554Z" fill="black"/>
</svg>
