<svg width="64" height="64" viewBox="0 0 64 64" fill="none" xmlns="http://www.w3.org/2000/svg">
<path d="M55.0984 4H8.90161C8.77027 3.99992 8.6402 4.02574 8.51884 4.07596C8.39748 4.12619 8.28721 4.19985 8.19433 4.29272C8.10146 4.38559 8.0278 4.49586 7.97757 4.61722C7.92735 4.73859 7.90153 4.86866 7.90161 5V38.3932C7.90153 38.5245 7.92735 38.6546 7.97757 38.776C8.0278 38.8973 8.10146 39.0076 8.19433 39.1005C8.28721 39.1934 8.39748 39.267 8.51884 39.3172C8.6402 39.3675 8.77027 39.3933 8.90161 39.3932H15.5773V43.5211C15.5774 43.7185 15.6358 43.9115 15.7453 44.0758L21.7238 53.0434V58.9995C21.7264 59.1844 21.7799 59.3652 21.8784 59.5217C21.9769 59.6783 22.1167 59.8048 22.2823 59.8872C22.448 59.9696 22.6331 60.0048 22.8174 59.9889C23.0018 59.9731 23.1782 59.9068 23.3273 59.7972C26.6036 57.3139 37.8828 59.0854 41.954 59.976C42.1 60.0081 42.2514 60.007 42.3969 59.9729C42.5425 59.9387 42.6785 59.8723 42.795 59.7786C42.9115 59.6849 43.0054 59.5663 43.07 59.4314C43.1345 59.2966 43.168 59.1489 43.1679 58.9995V52.9331L49.0028 44.7369C49.106 44.5597 49.169 44.362 49.1874 44.1578V39.3932H55.0984C55.2298 39.3933 55.3598 39.3674 55.4812 39.3172C55.6026 39.267 55.7128 39.1933 55.8057 39.1005C55.8986 39.0076 55.9722 38.8973 56.0225 38.776C56.0727 38.6546 56.0985 38.5245 56.0984 38.3932V5C56.0985 4.86865 56.0727 4.73858 56.0225 4.61722C55.9722 4.49585 55.8986 4.38558 55.8057 4.29271C55.7128 4.19983 55.6025 4.12618 55.4812 4.07595C55.3598 4.02573 55.2297 3.99992 55.0984 4ZM41.3534 52.0337C41.2325 52.2029 41.1676 52.4058 41.1678 52.6138V57.7729C37.7138 57.0971 28.5401 55.5776 23.7237 57.3559V52.7407C23.7236 52.5433 23.6652 52.3503 23.5557 52.186L17.5773 43.2183V39.3932H35.6177C32.5918 41.6475 31.143 44.9586 31.0029 49.4077C30.9999 49.6704 31.1004 49.9238 31.2827 50.113C31.4649 50.3023 31.7143 50.4122 31.9769 50.4192C32.2396 50.4261 32.4944 50.3294 32.6864 50.15C32.8784 49.9706 32.992 49.7229 33.0029 49.4604C32.9871 41.408 39.3636 38.7014 43.9658 38.9158C44.23 38.9308 44.4894 38.8414 44.6883 38.667C44.8872 38.4925 45.0096 38.2469 45.0291 37.983C44.9909 36.4586 43.2324 36.8619 40.8749 37.176V30.2722C40.8764 29.4361 41.2096 28.6347 41.8013 28.044C42.3931 27.4533 43.195 27.1216 44.0311 27.1216C44.8672 27.1216 45.6692 27.4533 46.2609 28.044C46.8527 28.6347 47.1859 29.4361 47.1873 30.2722V43.838L41.3534 52.0337ZM54.0984 37.3932H49.1873V30.2722C49.1854 28.9059 48.6413 27.5963 47.6746 26.6309C46.7078 25.6654 45.3974 25.1232 44.0311 25.1232C42.6649 25.1232 41.3544 25.6654 40.3877 26.6309C39.4209 27.5963 38.8768 28.9059 38.8749 30.2722V37.3932H9.9016V6H54.0984V37.3932Z" fill="black"/>
<path d="M16.2531 20.6425H25.5001C25.6315 20.6425 25.7615 20.6167 25.8829 20.5665C26.0043 20.5163 26.1145 20.4426 26.2074 20.3497C26.3003 20.2569 26.3739 20.1466 26.4242 20.0252C26.4744 19.9039 26.5002 19.7738 26.5001 19.6425V17.7235C26.4992 17.0007 26.3178 16.2896 25.9724 15.6546C25.627 15.0196 25.1285 14.481 24.5221 14.0875C24.7966 13.549 24.9416 12.9539 24.9455 12.3496C24.9459 11.7638 24.8153 11.1852 24.5632 10.6564C24.3111 10.1276 23.9439 9.6619 23.4885 9.29339C23.0332 8.92487 22.5011 8.66289 21.9313 8.52664C21.3616 8.3904 20.7685 8.38333 20.1957 8.50596C19.6229 8.6286 19.0847 8.87782 18.6207 9.23538C18.1566 9.59294 17.7784 10.0498 17.5138 10.5724C17.2492 11.0951 17.1048 11.6703 17.0913 12.256C17.0778 12.8417 17.1955 13.4229 17.4358 13.9572C16.7736 14.3384 16.2234 14.8871 15.8403 15.5482C15.4572 16.2093 15.2547 16.9595 15.2532 17.7235V19.6425C15.2531 19.7738 15.2789 19.9039 15.3291 20.0252C15.3794 20.1466 15.453 20.2568 15.5459 20.3497C15.6387 20.4426 15.749 20.5162 15.8704 20.5665C15.9917 20.6167 16.1218 20.6425 16.2531 20.6425ZM21.0148 10.4189C21.522 10.4263 22.006 10.6329 22.3621 10.9942C22.7182 11.3554 22.9178 11.8423 22.9178 12.3496C22.9178 12.8569 22.7181 13.3438 22.362 13.7051C22.0059 14.0663 21.5219 14.2729 21.0147 14.2802C20.5075 14.2729 20.0235 14.0663 19.6674 13.705C19.3113 13.3437 19.1117 12.8568 19.1117 12.3495C19.1117 11.8423 19.3113 11.3554 19.6675 10.9941C20.0236 10.6328 20.5076 10.4262 21.0148 10.4189ZM17.2531 17.7235C17.2537 17.2531 17.3951 16.7937 17.6591 16.4043C17.9231 16.0149 18.2976 15.7135 18.7344 15.5388C19.3784 16.006 20.1502 16.2645 20.9457 16.2795C21.7412 16.2945 22.5222 16.0653 23.1834 15.6228C23.5776 15.8145 23.91 16.1131 24.1428 16.4845C24.3756 16.8559 24.4994 17.2852 24.5001 17.7236V18.6425H17.2531V17.7235Z" fill="black"/>
<path d="M16.2531 34.9745H25.5001C25.6314 34.9745 25.7615 34.9487 25.8828 34.8985C26.0042 34.8483 26.1145 34.7746 26.2073 34.6817C26.3002 34.5889 26.3739 34.4786 26.4241 34.3572C26.4743 34.2359 26.5001 34.1058 26.5001 33.9745V32.0555C26.4991 31.3328 26.3178 30.6217 25.9724 29.9867C25.627 29.3518 25.1286 28.8132 24.5223 28.4197C24.7967 27.8811 24.9415 27.286 24.9454 26.6816C24.9458 26.0957 24.8152 25.5172 24.5631 24.9884C24.311 24.4596 23.9438 23.9939 23.4884 23.6254C23.033 23.2569 22.5009 22.9949 21.9311 22.8587C21.3614 22.7224 20.7683 22.7154 20.1955 22.838C19.6226 22.9606 19.0845 23.2099 18.6204 23.5674C18.1564 23.925 17.7782 24.3819 17.5135 24.9045C17.2489 25.4272 17.1046 26.0024 17.0911 26.5881C17.0775 27.1738 17.1952 27.755 17.4355 28.2893C16.7734 28.6706 16.2232 29.2193 15.8401 29.8803C15.4571 30.5414 15.2546 31.2915 15.2531 32.0555V33.9745C15.253 34.1058 15.2788 34.2359 15.3291 34.3572C15.3793 34.4786 15.4529 34.5889 15.5458 34.6817C15.6387 34.7746 15.749 34.8483 15.8703 34.8985C15.9917 34.9487 16.1217 34.9745 16.2531 34.9745ZM21.0147 24.7509C21.522 24.7584 22.0059 24.9652 22.3619 25.3265C22.718 25.6879 22.9176 26.1748 22.9176 26.6821C22.9175 27.1894 22.7179 27.6763 22.3619 28.0377C22.0058 28.399 21.5219 28.6057 21.0147 28.6132C20.5074 28.6057 20.0235 28.3989 19.6674 28.0376C19.3114 27.6762 19.1118 27.1893 19.1118 26.682C19.1118 26.1747 19.3114 25.6878 19.6675 25.3265C20.0236 24.9651 20.5075 24.7584 21.0147 24.7509ZM17.2531 32.0555C17.2537 31.5853 17.395 31.1259 17.6589 30.7366C17.9227 30.3474 18.297 30.0459 18.7336 29.8711C19.3778 30.3387 20.1498 30.5974 20.9457 30.6125C21.7415 30.6275 22.5228 30.3981 23.1841 29.9552C24.3903 30.5221 24.589 31.7555 24.5 32.9745H17.2531V32.0555Z" fill="black"/>
</svg>
