<svg width="272" height="336" viewBox="0 0 272 336" fill="none" xmlns="http://www.w3.org/2000/svg">
<g opacity="0.2">
<path d="M129.619 276.742L96.3503 256.218V150.705L129.619 130.821V276.742Z" stroke="black" stroke-width="3"/>
<path d="M85.7303 141.441L53.6229 160.691L54.3046 122.188L85.7303 141.441Z" stroke="black" stroke-width="3"/>
<path d="M210.521 65.1123L100.45 132.468L68.381 111.893L210.521 24.8184V65.1123Z" stroke="black" stroke-width="3"/>
<path d="M210.521 127.367L178.42 148.365L177.741 148.809V225.208L144.281 245.097V126.23L210.521 86.3208V127.367Z" stroke="black" stroke-width="3"/>
<path d="M177.975 257.376L145.871 276.771V260.715L177.975 241.959V257.376Z" stroke="black" stroke-width="3"/>
<path d="M213.348 168.379L192.599 181.188V155.569L213.348 168.379Z" stroke="black" stroke-width="3"/>
<path d="M177.921 27.9424L161.359 38.3018L137.957 22.8926L137.165 22.3711L136.354 22.8633L20.3799 93.2949L19.6592 93.7324V94.5771L19.6553 129.035L1.5 118.237V84.5078L137.14 1.76953L177.921 27.9424Z" stroke="black" stroke-width="3"/>
<path d="M19.6582 149.6L19.6553 238.179V239.011L20.3613 239.451L136.834 312.164L137.627 312.659L138.421 312.165L251.174 242.018L251.875 241.581L251.881 240.755L252.092 211.942L270.5 223.174V249.927L137.164 333.59L1.5 247.692V138.878L19.6582 149.6Z" stroke="black" stroke-width="3"/>
<path d="M252.09 98.0981L251.415 97.6538L225.884 80.8325V61.0894L270.5 89.2231V201.158L252.09 190.131V98.0981Z" stroke="black" stroke-width="3"/>
</g>
</svg>
