<svg width="48" height="48" viewBox="0 0 48 48" fill="none" xmlns="http://www.w3.org/2000/svg">
<path d="M6.75 25.5C6.336 25.5 6 25.164 6 24.75V11.25C6 11.0505 6.0795 10.86 6.219 10.719L15.219 1.719C15.36 1.5795 15.5505 1.5 15.75 1.5H30.75C31.164 1.5 31.5 1.836 31.5 2.25C31.5 2.664 31.164 3 30.75 3H16.0605L7.5 11.5605V24.75C7.5 25.164 7.164 25.5 6.75 25.5Z" fill="black"/>
<path d="M15.75 12.0002H6.7815C6.4785 12.0002 6.207 11.8172 6.09 11.5382C5.973 11.2577 6.036 10.9352 6.2505 10.7207L15.219 1.72069C15.5115 1.42669 15.987 1.42669 16.2795 1.71919C16.5735 2.01169 16.5735 2.48569 16.2825 2.77969L8.589 10.5002H15V6.75019C15 6.33619 15.336 6.00019 15.75 6.00019C16.164 6.00019 16.5 6.33619 16.5 6.75019V11.2502C16.5 11.6642 16.164 12.0002 15.75 12.0002Z" fill="black"/>
<path d="M41.25 46.5H17.25C16.836 46.5 16.5 46.164 16.5 45.75C16.5 45.336 16.836 45 17.25 45H40.5V23.25C40.5 22.836 40.836 22.5 41.25 22.5C41.664 22.5 42 22.836 42 23.25V45.75C42 46.164 41.664 46.5 41.25 46.5Z" fill="black"/>
<path d="M45.042 16.2481C44.9445 16.2481 44.8455 16.2286 44.7495 16.1881C44.3685 16.0276 44.19 15.5866 44.3505 15.2056C44.781 14.1886 45 13.1086 45 11.9956C45 7.44611 41.298 3.74561 36.75 3.74561C32.202 3.74561 28.5 7.44611 28.5 11.9956C28.5 13.0921 28.713 14.1571 29.13 15.1636C29.2875 15.5461 29.1075 15.9856 28.7235 16.1446C28.3425 16.3006 27.903 16.1221 27.744 15.7396C27.2505 14.5486 27 13.2901 27 11.9956C27 6.61961 31.374 2.24561 36.75 2.24561C42.126 2.24561 46.5 6.61961 46.5 11.9956C46.5 13.3111 46.242 14.5876 45.7335 15.7906C45.612 16.0756 45.3345 16.2481 45.042 16.2481Z" fill="black"/>
<path d="M36.75 21.7456C34.1655 21.7456 31.731 20.7436 29.8935 18.9226C29.6715 18.7021 29.6085 18.3646 29.7375 18.0796C30.5865 16.2061 32.457 14.9956 34.5 14.9956H39C41.043 14.9956 42.912 16.2061 43.7625 18.0796C43.893 18.3646 43.83 18.7021 43.6065 18.9226C41.769 20.7421 39.3345 21.7456 36.75 21.7456ZM31.3545 18.2341C32.8545 19.5346 34.7505 20.2456 36.75 20.2456C38.7495 20.2456 40.6455 19.5346 42.1455 18.2341C41.4645 17.1631 40.2795 16.4956 39 16.4956H34.5C33.2205 16.4956 32.0355 17.1631 31.3545 18.2341Z" fill="black"/>
<path d="M36.75 13.4956C34.6815 13.4956 33 11.8126 33 9.74561C33 7.67861 34.6815 5.99561 36.75 5.99561C38.8185 5.99561 40.5 7.67861 40.5 9.74561C40.5 11.8126 38.8185 13.4956 36.75 13.4956ZM36.75 7.49561C35.5095 7.49561 34.5 8.50511 34.5 9.74561C34.5 10.9861 35.5095 11.9956 36.75 11.9956C37.9905 11.9956 39 10.9861 39 9.74561C39 8.50511 37.9905 7.49561 36.75 7.49561Z" fill="black"/>
<path d="M19.542 40.2481C19.4445 40.2481 19.3455 40.2286 19.2495 40.1881C18.8685 40.0276 18.69 39.5866 18.8505 39.2056C19.281 38.1886 19.5 37.1086 19.5 35.9956C19.5 31.4461 15.798 27.7456 11.25 27.7456C6.702 27.7456 3 31.4461 3 35.9956C3 37.0921 3.213 38.1571 3.63 39.1636C3.7875 39.5461 3.6075 39.9856 3.2235 40.1446C2.844 40.3006 2.403 40.1221 2.244 39.7396C1.7505 38.5486 1.5 37.2901 1.5 35.9956C1.5 30.6196 5.874 26.2456 11.25 26.2456C16.626 26.2456 21 30.6196 21 35.9956C21 37.3111 20.742 38.5876 20.2335 39.7906C20.112 40.0756 19.8345 40.2481 19.542 40.2481Z" fill="black"/>
<path d="M11.25 45.7456C8.6655 45.7456 6.231 44.7436 4.3935 42.9226C4.1715 42.7021 4.1085 42.3646 4.2375 42.0796C5.088 40.2061 6.957 38.9956 9 38.9956H13.5C15.543 38.9956 17.412 40.2061 18.2625 42.0796C18.393 42.3646 18.33 42.7021 18.1065 42.9226C16.269 44.7421 13.8345 45.7456 11.25 45.7456ZM5.8545 42.2341C7.3545 43.5346 9.2505 44.2456 11.25 44.2456C13.2495 44.2456 15.1455 43.5346 16.6455 42.2341C15.9645 41.1631 14.7795 40.4956 13.5 40.4956H9C7.7205 40.4956 6.5355 41.1631 5.8545 42.2341Z" fill="black"/>
<path d="M11.25 37.4956C9.1815 37.4956 7.5 35.8126 7.5 33.7456C7.5 31.6786 9.1815 29.9956 11.25 29.9956C13.3185 29.9956 15 31.6786 15 33.7456C15 35.8126 13.3185 37.4956 11.25 37.4956ZM11.25 31.4956C10.0095 31.4956 9 32.5051 9 33.7456C9 34.9861 10.0095 35.9956 11.25 35.9956C12.4905 35.9956 13.5 34.9861 13.5 33.7456C13.5 32.5051 12.4905 31.4956 11.25 31.4956Z" fill="black"/>
<path d="M15.021 25.3529C14.631 25.3529 14.3025 25.0499 14.274 24.6539C14.2425 24.1874 14.244 23.7134 14.2815 23.2439C14.697 17.8859 19.41 13.8539 24.753 14.2754C25.1655 14.3069 25.4745 14.6684 25.443 15.0809C25.4115 15.4949 25.0125 15.7979 24.639 15.7709C20.1015 15.4109 16.128 18.8249 15.7755 23.3579C15.744 23.7599 15.744 24.1589 15.771 24.5504C15.7995 24.9629 15.4875 25.3214 15.0735 25.3499C15.0555 25.3529 15.0375 25.3529 15.021 25.3529Z" fill="black"/>
<path d="M24.018 33.7424C23.7615 33.7424 23.505 33.7319 23.2455 33.7124C22.833 33.6809 22.5255 33.3194 22.557 32.9054C22.5885 32.4929 22.962 32.1884 23.3625 32.2169C25.5585 32.3909 27.6885 31.6919 29.3625 30.2594C31.0365 28.8254 32.052 26.8274 32.223 24.6314C32.2545 24.2324 32.2545 23.8379 32.229 23.4494C32.202 23.0369 32.514 22.6784 32.928 22.6514C33.3675 22.6259 33.699 22.9364 33.726 23.3504C33.756 23.8094 33.7545 24.2759 33.717 24.7469C33.516 27.3419 32.316 29.7044 30.3375 31.3994C28.557 32.9249 26.337 33.7424 24.018 33.7424Z" fill="black"/>
<path d="M23.25 27.0003C23.241 27.0003 23.2305 27.0003 23.2215 27.0003C22.995 26.9928 22.785 26.8818 22.6485 26.7003L20.3985 23.7003C20.151 23.3688 20.2185 22.8993 20.55 22.6503C20.88 22.4028 21.351 22.4658 21.6 22.8003L23.295 25.0593L27.936 19.7553C28.209 19.4433 28.683 19.4118 28.9935 19.6848C29.3055 19.9578 29.337 20.4318 29.064 20.7438L23.814 26.7438C23.6715 26.9073 23.466 27.0003 23.25 27.0003Z" fill="black"/>
<path d="M32.25 40.5H24.75C24.336 40.5 24 40.164 24 39.75C24 39.336 24.336 39 24.75 39H32.25C32.664 39 33 39.336 33 39.75C33 40.164 32.664 40.5 32.25 40.5Z" fill="black"/>
<path d="M36.75 37.5H24.75C24.336 37.5 24 37.164 24 36.75C24 36.336 24.336 36 24.75 36H36.75C37.164 36 37.5 36.336 37.5 36.75C37.5 37.164 37.164 37.5 36.75 37.5Z" fill="black"/>
</svg>
