<svg width="64" height="64" viewBox="0 0 64 64" fill="none" xmlns="http://www.w3.org/2000/svg">
<path d="M53.6792 40.5872V39.2705C57.7413 36.1679 56.8679 30.3591 56.7719 29.7922C56.0961 24.0145 51.479 22.7758 49.0748 22.9208C48.1192 22.8571 47.1605 22.9841 46.2545 23.2944C45.3485 23.6047 44.5132 24.0922 43.7974 24.7284C43.0815 25.3646 42.4994 26.1368 42.0848 27.0001C41.6702 27.8635 41.4315 28.8006 41.3826 29.7571C41.334 30.0293 40.2938 36.0799 44.4694 39.27V40.5849C42.9537 40.9746 41.5897 41.8103 40.554 42.9836C39.5183 44.1569 38.8584 45.6141 38.6598 47.1665C38.0527 46.8281 37.4018 46.5753 36.7255 46.4152V45.011C40.925 41.8165 40.0197 35.8141 39.9217 35.2364C39.057 25.7065 24.9498 25.7105 24.0832 35.2012C24.0327 35.482 22.9605 41.7255 27.2736 45.0082V46.4135C26.5943 46.5755 25.9407 46.8304 25.3311 47.171C25.133 45.6194 24.4744 44.1629 23.4403 42.9893C22.4061 41.8157 21.044 40.9791 19.5296 40.5874V39.2711C23.5909 36.1686 22.7174 30.3587 22.6213 29.7922C21.7635 20.5136 8.05958 20.552 7.23306 29.757C7.18447 30.0293 6.14421 36.0799 10.3199 39.2699V40.5847C8.62899 41.021 7.13185 42.0087 6.06534 43.3915C4.99884 44.7743 4.42385 46.4732 4.43136 48.2195V52.1227C4.42193 52.8523 4.7031 53.7916 5.56123 53.7897H21.2144C21.2049 53.95 21.1927 54.1095 21.1927 54.2717V58.3121C21.1851 59.0606 21.4445 59.9961 22.3177 60.0001H41.6814C42.5534 59.9951 42.8131 59.0572 42.8064 58.3121C42.7767 58.0101 42.8421 53.9354 42.7846 53.7897H58.4388C59.2938 53.7903 59.5778 52.8526 59.5686 52.1227V48.2195C59.5746 46.4738 58.9988 44.7758 57.9323 43.3937C56.8658 42.0116 55.3693 41.0241 53.6792 40.5872ZM46.4694 40.3614C48.149 40.9906 49.9996 40.9906 51.6792 40.3614V41.1123L49.0787 44.9891L46.4694 41.1113V40.3614ZM48.7379 24.913C49.6844 24.9791 53.574 24.4901 54.6773 29.3906C52.9428 28.5011 51.0214 28.0374 49.0722 28.0378C47.1229 28.0383 45.2017 28.5028 43.4676 29.393C43.6351 28.1261 44.2669 26.9664 45.2406 26.1387C46.2143 25.311 47.4605 24.8742 48.7379 24.913ZM43.2485 31.8547C44.9635 30.6767 46.9953 30.0463 49.0758 30.0466C51.1564 30.0469 53.188 30.6779 54.9026 31.8564C54.8746 33.7353 54.3828 36.651 51.8032 38.1187C46.8927 40.6535 43.0229 36.1993 43.2485 31.8547ZM29.2735 46.1086C31.0295 46.7764 32.9696 46.7763 34.7255 46.1084V46.9413L32.0039 50.9978L29.2735 46.9403L29.2735 46.1086ZM31.6494 30.155C32.6129 30.2214 36.7173 29.7127 37.8345 34.8801C36.0316 33.9428 34.0294 33.4536 31.9975 33.454C29.9655 33.4543 27.9634 33.9441 26.1608 34.8819C26.3201 33.5509 26.9717 32.3277 27.9875 31.4529C29.0032 30.5781 30.3095 30.1151 31.6494 30.155ZM25.9452 37.3455C27.7272 36.1177 29.8404 35.4606 32.0044 35.4615C34.1684 35.4625 36.281 36.1214 38.0619 37.3508C38.0396 39.2967 37.5369 42.3299 34.8379 43.8661C29.7227 46.5031 25.7041 41.8605 25.9452 37.3455ZM12.3198 40.3615C13.9994 40.991 15.8501 40.9909 17.5297 40.3614V41.1122L14.9291 44.9891L12.3198 41.1113V40.3615ZM14.5874 24.913C15.5338 24.9791 19.4234 24.4901 20.5267 29.3906C18.7924 28.5009 16.8712 28.0371 14.922 28.0375C12.9728 28.0379 11.0518 28.5026 9.31784 29.3929C9.48504 28.126 10.1167 26.9663 11.0902 26.1386C12.0638 25.3109 13.3101 24.8741 14.5874 24.913ZM9.099 31.8547C10.8147 30.6763 12.8475 30.046 14.9289 30.0469C17.0103 30.0478 19.0425 30.6799 20.7572 31.8598C20.7332 33.7357 20.2444 36.6447 17.6537 38.1187C12.7304 40.6297 8.87818 36.214 9.099 31.8547ZM6.43131 51.7897V48.2195C6.42167 46.9107 6.85404 45.6368 7.65843 44.6043C8.46281 43.5717 9.59213 42.8409 10.8636 42.53L14.1001 47.3401C14.1926 47.4748 14.3166 47.585 14.4613 47.661C14.6059 47.7371 14.7669 47.7768 14.9304 47.7767C15.0938 47.7766 15.2548 47.7367 15.3994 47.6605C15.544 47.5842 15.6678 47.4739 15.7602 47.3391L18.9838 42.5339C20.2529 42.8465 21.3797 43.5776 22.1825 44.6091C22.9852 45.6406 23.4171 46.9124 23.4084 48.2195V48.6807C22.5779 49.569 21.9556 50.631 21.5864 51.7897L6.43131 51.7897ZM40.8064 58H23.1926V54.2716C23.1837 52.909 23.636 51.5834 24.4758 50.5103C25.3157 49.4373 26.4939 48.6799 27.8187 48.3612L31.1748 53.3488C31.2674 53.4835 31.3914 53.5937 31.536 53.6698C31.6807 53.7458 31.8417 53.7856 32.0052 53.7855C32.1686 53.7854 32.3296 53.7455 32.4742 53.6692C32.6187 53.5929 32.7426 53.4826 32.835 53.3478L36.1794 48.3632C37.504 48.6819 38.6819 49.439 39.5219 50.5116C40.3619 51.5842 40.8146 52.9093 40.8064 54.2716L40.8064 58ZM57.5687 51.7897H42.4121C42.0415 50.6272 41.4162 49.562 40.5818 48.6716V48.2195C40.5722 46.9108 41.0045 45.6372 41.8087 44.6047C42.6129 43.5722 43.742 42.8412 45.0133 42.5302L48.2496 47.3401C48.3422 47.4748 48.4662 47.585 48.6108 47.6611C48.7555 47.7371 48.9165 47.7768 49.0799 47.7767C49.2434 47.7766 49.4044 47.7367 49.5489 47.6605C49.6935 47.5843 49.8173 47.474 49.9097 47.3391L53.1334 42.5338C54.4043 42.8449 55.5332 43.5752 56.3379 44.6068C57.1427 45.6384 57.5763 46.9112 57.5687 48.2195V51.7897Z" fill="black"/>
<path d="M23.2727 21.0648C29.07 31.1787 44.5498 27.273 44.6872 15.4516C44.6841 12.4162 43.477 9.50594 41.3308 7.35935C39.1847 5.21276 36.2747 4.00512 33.2392 4.00137C24.5885 3.86634 18.938 13.7616 23.2727 21.0648ZM32.2393 6.05564V7.1468C32.2411 7.41078 32.3473 7.66332 32.5346 7.84933C32.722 8.03534 32.9753 8.13973 33.2393 8.13973C33.5032 8.13973 33.7565 8.03534 33.9439 7.84933C34.1312 7.66332 34.2374 7.41078 34.2392 7.1468V6.05564C35.556 6.19788 36.8281 6.61557 37.973 7.28157C39.1178 7.94756 40.1097 8.84696 40.8842 9.92133C40.1496 10.3522 38.9852 10.782 39.5389 11.8528C39.6718 12.0822 39.8902 12.2496 40.1463 12.3182C40.4024 12.3869 40.6752 12.3512 40.905 12.2189L41.8842 11.6537C42.4175 12.8704 42.6882 14.1858 42.6788 15.5142C42.6694 16.8426 42.3801 18.1541 41.8296 19.3631L40.8455 18.7949C40.6161 18.6684 40.3462 18.6368 40.0939 18.7071C39.8415 18.7773 39.6267 18.9438 39.4958 19.1707C39.3648 19.3976 39.3281 19.6668 39.3935 19.9205C39.4589 20.1742 39.6212 20.3921 39.8455 20.5274L40.8088 21.0834C40.0209 22.1464 39.0182 23.0318 37.8659 23.6821C36.7135 24.3324 35.4373 24.7331 34.12 24.858V23.764C34.121 23.6321 34.0958 23.5013 34.046 23.3792C33.9961 23.2571 33.9226 23.146 33.8297 23.0524C33.7367 22.9588 33.6262 22.8845 33.5044 22.8338C33.3826 22.7831 33.252 22.757 33.1201 22.757C32.9882 22.757 32.8575 22.7831 32.7358 22.8338C32.614 22.8845 32.5034 22.9588 32.4105 23.0524C32.3175 23.146 32.244 23.2571 32.1942 23.3792C32.1443 23.5013 32.1192 23.6321 32.1201 23.764V24.8301C30.8167 24.6731 29.5603 24.246 28.4312 23.576C27.3022 22.9061 26.3252 22.0081 25.5628 20.9393L26.4552 20.4243C26.6793 20.2889 26.8414 20.071 26.9066 19.8174C26.9719 19.5638 26.9351 19.2948 26.8042 19.068C26.6733 18.8413 26.4587 18.6749 26.2065 18.6045C25.9543 18.5342 25.6845 18.5656 25.4552 18.6919L24.5719 19.2017C24.0543 17.9999 23.7914 16.7039 23.7999 15.3954C23.8085 14.0869 24.0882 12.7944 24.6214 11.5994C24.9696 11.7668 25.6211 12.2801 26.0139 12.2497C26.2318 12.2456 26.4425 12.1708 26.6143 12.0365C26.786 11.9022 26.9094 11.7158 26.9659 11.5052C27.0225 11.2947 27.009 11.0715 26.9276 10.8692C26.8463 10.667 26.7013 10.4967 26.5147 10.384L25.6309 9.87352C26.4059 8.81216 27.3941 7.92435 28.532 7.26691C29.67 6.60948 30.9327 6.19691 32.2393 6.05564Z" fill="black"/>
<path d="M33.2012 18.4968C33.6427 18.4945 34.078 18.3935 34.4754 18.201L35.6044 19.3298C35.7932 19.5114 36.0456 19.6116 36.3075 19.6091C36.5693 19.6066 36.8198 19.5014 37.0049 19.3162C37.1901 19.131 37.2953 18.8806 37.2978 18.6187C37.3003 18.3569 37.2 18.1044 37.0184 17.9157L35.8915 16.7892C36.0699 16.4128 36.1676 16.0032 36.1783 15.5868C36.189 15.1704 36.1125 14.7564 35.9537 14.3713C35.7949 13.9863 35.5572 13.6387 35.2561 13.3509C34.9549 13.0631 34.5969 12.8416 34.205 12.7004L34.2051 10.5287C34.1999 10.2669 34.0922 10.0176 33.9053 9.83431C33.7183 9.651 33.4669 9.54833 33.205 9.54834C32.9432 9.54835 32.6918 9.65104 32.5048 9.83436C32.3179 10.0177 32.2103 10.267 32.2051 10.5288V12.6979C31.5479 12.9386 30.996 13.4021 30.6453 14.0077C30.2946 14.6134 30.1675 15.3228 30.286 16.0126C30.4044 16.7023 30.761 17.3286 31.2937 17.7826C31.8264 18.2365 32.5014 18.4892 33.2012 18.4968ZM32.21 15.5057C32.214 15.2454 32.3201 14.9971 32.5056 14.8145C32.691 14.6318 32.9409 14.5295 33.2012 14.5295C33.4615 14.5295 33.7113 14.6318 33.8968 14.8145C34.0822 14.9971 34.1884 15.2454 34.1924 15.5057C34.1884 15.7659 34.0822 16.0142 33.8968 16.1968C33.7113 16.3795 33.4615 16.4819 33.2012 16.4819C32.9409 16.4819 32.691 16.3795 32.5056 16.1968C32.3201 16.0142 32.214 15.7659 32.21 15.5057Z" fill="black"/>
</svg>
