<svg width="262" height="199" viewBox="0 0 262 199" fill="none" xmlns="http://www.w3.org/2000/svg">
<path opacity="0.1" d="M114.772 199H0V86.0789C0 57.0774 8.02169 35.4806 24.0651 21.2883C40.1085 7.09612 61.3968 0 87.9301 0V49.0557C75.589 49.0557 66.9503 52.4495 62.0139 59.2371C57.6945 65.4077 55.5348 74.3549 55.5348 86.0789H114.772V199ZM261.939 199H147.167V86.0789C147.167 57.0774 155.189 35.4806 171.232 21.2883C187.276 7.09612 208.564 0 235.097 0V49.0557C222.756 49.0557 214.118 52.4495 209.181 59.2371C204.862 65.4077 202.702 74.3549 202.702 86.0789H261.939V199Z" fill="#F2F4F8"/>
</svg>
