<svg width="347" height="428" viewBox="0 0 347 428" fill="none" xmlns="http://www.w3.org/2000/svg">
<g opacity="0.1">
<path d="M165.773 353.791L122.504 327.098V192.024L165.773 166.164V353.791Z" stroke="black" stroke-width="3"/>
<path d="M110.167 180.444L67.982 205.738L68.8766 155.148L110.167 180.444Z" stroke="black" stroke-width="3"/>
<path d="M268.982 83.2983L128.143 169.482L86.4576 142.738L268.982 30.9233V83.2983Z" stroke="black" stroke-width="3"/>
<path d="M268.982 162.71L227.844 189.62L227.165 190.064V287.542L183.651 313.406V160.801L268.982 109.391V162.71Z" stroke="black" stroke-width="3"/>
<path d="M227.463 328.576L185.679 353.82V332.367L227.463 307.955V328.576Z" stroke="black" stroke-width="3"/>
<path d="M272.963 214.807L245.291 231.89V197.724L272.963 214.807Z" stroke="black" stroke-width="3"/>
<path d="M227.754 35.6523L205.846 49.3535L175.77 29.5508L174.978 29.0283L174.166 29.5215L26.2148 119.373L25.4932 119.811V120.655L25.4883 165.342L1.5 151.075V107.578L174.96 1.76855L227.754 35.6523Z" stroke="black" stroke-width="3"/>
<path d="M25.4922 190.613L25.4883 303.854V304.686L26.1943 305.126L174.783 397.888L175.576 398.383L176.369 397.89L320.212 308.399L320.914 307.963L320.92 307.137L321.193 269.649L345.5 284.479V319.069L174.983 426.062L1.5 316.218V176.447L25.4922 190.613Z" stroke="black" stroke-width="3"/>
<path d="M321.186 125.37L320.511 124.925L287.754 103.343V77.1841L345.5 113.597V257.353L321.186 242.79V125.37Z" stroke="black" stroke-width="3"/>
</g>
</svg>
