<svg width="251" height="61" viewBox="0 0 251 61" fill="none" xmlns="http://www.w3.org/2000/svg">
<g clip-path="url(#clip0_10_70)">
<path d="M68.9521 17.4083V21.182H90.5195V17.4083H68.9521ZM77.5623 17.4083V44.9292H81.8698V17.4083H77.5623Z" fill="black"/>
<path d="M105.118 24.6822C103.606 23.0845 101.439 22.2832 98.6211 22.2832C96.5591 22.2832 94.8174 22.7038 93.396 23.5424C91.9745 24.381 90.889 25.4678 90.1465 26.8064C89.404 28.1426 89.0309 29.5572 89.0309 31.0512H93.4919C93.4919 30.1861 93.6563 29.3813 93.9825 28.633C94.3088 27.8872 94.8498 27.2908 95.6055 26.8438C96.3636 26.3992 97.3676 26.1775 98.6199 26.1775C100.263 26.1775 101.457 26.6281 102.202 27.533C102.944 28.4378 103.368 29.6765 103.472 31.2476H107.661C107.477 28.4704 106.629 26.2811 105.115 24.6834L105.118 24.6822ZM103.474 33.6068V31.2476C101.884 31.2476 100.272 31.3199 98.6415 31.4633C97.0089 31.6091 95.5107 31.9163 94.1397 32.3875C92.7698 32.861 91.6687 33.5936 90.8338 34.59C89.9965 35.5864 89.5803 36.9492 89.5803 38.6794C89.5803 40.147 89.9138 41.3904 90.5795 42.4146C91.2428 43.4363 92.1437 44.2171 93.2784 44.7545C94.4132 45.2918 95.6991 45.5593 97.1349 45.5593C98.5707 45.5593 99.823 45.2906 100.892 44.7545C101.961 44.2183 102.822 43.4628 103.474 42.4941V44.9304H107.7V33.608H103.474V33.6068ZM103.474 36.2407C103.474 37.4203 103.24 38.424 102.771 39.2493C102.3 40.0747 101.653 40.7108 100.833 41.1555C100.011 41.6025 99.0913 41.8242 98.0741 41.8242C96.7942 41.8242 95.789 41.5494 95.0597 40.9988C94.3304 40.4482 93.9645 39.6216 93.9645 38.5204C93.9645 37.2106 94.7406 36.2335 96.294 35.5913C97.845 34.9503 100.24 34.6828 103.476 34.7864V36.2407H103.474Z" fill="black"/>
<path d="M111.419 15.4407V44.928H115.647V15.4407H111.419Z" fill="black"/>
<path d="M139.484 29.8126C139.039 28.2017 138.342 26.8329 137.39 25.7039C136.436 24.5774 135.308 23.7255 134.005 23.1484C132.698 22.5712 131.303 22.2832 129.816 22.2832C127.807 22.2832 125.993 22.7038 124.376 23.5424C122.757 24.381 121.447 25.5798 120.443 27.139C119.438 28.6993 118.844 30.5681 118.662 32.7417H123.123V35.3358H139.837C140.045 33.2646 139.927 31.4248 139.484 29.8114V29.8126ZM123.221 31.7573C123.462 30.1512 124.093 28.8607 125.119 27.886C126.346 26.7197 127.912 26.1365 129.816 26.1365C131.173 26.1365 132.296 26.451 133.183 27.0811C134.068 27.7089 134.728 28.5427 135.16 29.5765C135.443 30.256 135.62 30.9826 135.696 31.7573H123.221ZM135.374 37.9312C135.009 38.9806 134.378 39.8722 133.477 40.6048C132.576 41.3398 131.356 41.7049 129.816 41.7049C127.754 41.7049 126.171 41.1109 125.061 39.9156C123.95 38.7252 123.306 37.1974 123.123 35.3358H118.701C118.91 37.3564 119.49 39.13 120.443 40.6639C121.394 42.1977 122.673 43.3953 124.276 44.2617C125.883 45.1268 127.728 45.5581 129.815 45.5581C131.589 45.5581 133.169 45.2364 134.552 44.5942C135.935 43.9532 137.075 43.0628 137.976 41.923C138.877 40.7831 139.497 39.4517 139.837 37.9312H135.373H135.374Z" fill="black"/>
<path d="M160.915 25.9979C160.275 24.675 159.394 23.7243 158.272 23.1484C157.151 22.5712 155.884 22.2832 154.476 22.2832C153.067 22.2832 151.918 22.4857 150.953 22.8929C149.987 23.3002 149.211 23.8243 148.623 24.4665C148.035 25.1075 147.587 25.7955 147.274 26.5281V22.9122H143.045V44.928H147.274V33.9598C147.274 32.2031 147.568 30.7356 148.154 29.556C148.742 28.3764 149.504 27.4848 150.444 26.8823C151.384 26.2799 152.374 25.9774 153.419 25.9774C154.54 25.9774 155.408 26.222 156.022 26.7064C156.634 27.1908 157.058 27.8727 157.292 28.7511C157.526 29.6295 157.645 30.6705 157.645 31.8766V44.9292H161.871V31.3657C161.871 29.1126 161.55 27.3233 160.913 25.9979H160.915Z" fill="black"/>
<path d="M164.104 22.9134V26.5293H176.043V22.9134H164.104ZM167.391 17.4083V41.3133H171.619V17.4083H167.391ZM171.619 41.3133V44.9292H176.669V41.3133H171.619Z" fill="black"/>
<path d="M189.701 22.9134V26.5293H201.484V22.9134H189.701ZM192.208 15.4407V44.928H196.434V19.0578H201.953V15.4395H192.208V15.4407Z" fill="black"/>
<path d="M185.122 22.9122H180.895V44.9292H185.122V22.9122Z" fill="black"/>
<path d="M210.289 22.9122H206.062V44.9292H210.289V22.9122Z" fill="black"/>
<path d="M185.122 15.4407H180.895V20.3614H185.122V15.4407Z" fill="black"/>
<path d="M210.289 15.4407H206.062V20.3614H210.289V15.4407Z" fill="black"/>
<path d="M213.971 30.5404V34.1562H226.299V30.5404H213.971Z" fill="black"/>
<path d="M245.506 15.4407L238.649 25.9666L235.965 30.0885L226.298 44.928H231.667L238.649 34.2081L241.334 30.0885L250.875 15.4407H245.506ZM241.335 30.0897L238.65 25.9678L231.792 15.4419H226.423L235.966 30.0897L238.65 34.2093L245.633 44.9292H251L241.335 30.0897Z" fill="black"/>
<path d="M17.2179 27.257V46.757L23.8021 50.8259V23.3146L17.2179 27.257Z" fill="#0000FF"/>
<path d="M9.59377 21.7435L9.45343 29.7162L16.088 25.7292L9.59377 21.7435Z" fill="#0000FF"/>
<path d="M11.9005 20.347L18.2315 24.4171L38.4879 11.9959V4.02674L11.9005 20.347Z" fill="#0000FF"/>
<path d="M25.9193 22.8062V45.0605L32.537 41.1181V27.2149L38.4879 23.3146V15.2178L25.9193 22.8062Z" fill="#0000FF"/>
<path d="M26.2072 47.2655V50.8259L32.579 46.969V43.5351L26.2072 47.2655Z" fill="#00DDE2"/>
<path d="M34.6902 27.8077V33.4466L39.2472 30.6271L34.6902 27.8077Z" fill="#0000FF"/>
<path d="M0 21.6615L3.84087 23.9508V17.2022L24.8937 4.39183L29.2875 7.29079L32.8069 5.08584L24.8985 0L0 15.2178V21.6615Z" fill="#0000FF"/>
<path d="M0 24.7834V45.2039L24.8985 61L49.3759 45.6111V40.441L45.4931 38.0661L45.4511 43.7893L24.9836 56.5491L3.84087 43.3231V27.0558L0 24.7834Z" fill="#00DDE2"/>
<path d="M40.7322 10.6175V14.8503L45.4895 17.9902V34.7382L49.3759 37.0709V16.0793L40.7322 10.6175Z" fill="#0000FF"/>
</g>
<defs>
<clipPath id="clip0_10_70">
<rect width="251" height="61" fill="white"/>
</clipPath>
</defs>
</svg>
